<svg width="448" height="282" viewBox="0 0 448 282" fill="none" xmlns="http://www.w3.org/2000/svg">
<path d="M189.3 267.9H180.4L178.3 280H157.9L160 267.9H131.1L133.8 252.5L171.2 212.6H190.1L183.3 251.4H192.2L189.3 267.9ZM162.9 251.3L165 238.7L153.4 251.3H162.9ZM220.6 239.3C224.4 236.8 229 235.6 234.3 235.6C239.6 235.6 243.8 236.9 246.8 239.7C249.8 242.5 251.3 246.7 251.3 252.3C251.3 261.2 248.4 268.3 242.7 273.4C236.9 278.6 230.1 281.2 222.1 281.2C206.1 281.2 197.2 271.2 197.2 255.2C197.2 239.4 202.8 225.8 214.3 217.8C219.9 213.8 226.6 211.8 234.2 211.8C241.9 211.8 252.6 214.1 252.6 222.4C252.6 225.6 250.4 230 247.4 232.9C243.9 229.8 239.6 228.3 234.8 228.3C225.9 228.2 222.4 232.3 220.6 239.3ZM217.2 252.9C216.6 258 216.9 264.6 223.5 264.6C228.1 264.6 231.1 261.2 231.1 255C231.1 251.6 229.2 249.4 226.1 249.4C223 249.4 220.1 250.6 217.2 252.9ZM302.1 262.6C303.5 264.6 304.2 266.9 304.2 269.6C304.2 278.3 296.5 281.1 284.3 281.1C277.2 281.1 271.4 279.2 266.7 275.4C262 271.7 259.6 266.3 259.6 259.3C259.6 251 262.7 244.2 268.7 238.8C274.7 233.4 281.6 230.8 289.5 230.8C295.8 230.8 300.7 232.3 304 235.3C307.3 238.3 309.1 241.8 309 245.8C309 255.9 303 261 290.8 261C285.7 261 281.2 260.2 277.5 258.7C276.8 264.4 281.5 267.4 288.5 267.4C294.8 267.4 299.3 265.8 302.1 262.6ZM279.2 250.7C281 251.4 283.6 251.7 287 251.7C291.3 251.7 293.4 250.4 293.4 247.6C293.4 245.6 292 244 289.3 244C284.9 243.9 281.4 246.2 279.2 250.7ZM330 280H310.5L320.4 224C321.3 219.6 321.5 216.2 321 213.6C323.8 212.8 326.9 212.5 330.6 212.5C338.6 212.5 341.5 216.3 340.1 224.1L330 280ZM366.8 239C372.2 233.5 378.9 230.8 387 230.8C395.3 230.8 399.3 234.8 399.2 242C399 251.7 388.9 258.5 381.5 259.2C382.6 263.4 386.5 266.4 391.5 266.4C393.1 266.4 394.8 266 396.5 265.2C397.6 267.4 398 269.6 398 272C398 278.1 394.5 281.2 387.4 281.2C382 281.2 377.5 279.4 374.1 275.4C364.9 264.5 368.7 251.6 368.7 251.6C372.5 251.9 375.9 251.5 378.7 250.5C381.5 249.4 382.9 248.1 382.9 246.6C382.9 244.8 381.5 243.8 378.6 243.8C373.2 243.8 368.5 246.7 364.3 252.3L359.4 280.1H339.7L349.6 224.1C350.5 219.7 350.7 216.3 350.2 213.7C353 212.9 356.1 212.6 359.9 212.6C367.9 212.6 370.9 216.4 369.5 224.2L366.8 239ZM426.6 265.3C426.6 264.1 424.7 262.9 420.8 261.9C416.6 260.7 414.1 259.7 410.8 257.5C407.4 255.3 405.6 252.1 405.6 247.8C405.6 242.2 407.8 237.9 412.3 235C416.8 232.1 422.5 230.7 429.5 230.7C436.4 230.7 447.6 232.6 447.6 239.5C447.6 242.6 446.2 245.8 443.2 249.2C440 245.9 435.1 244.2 428.5 244.2C425.5 244.2 424 244.9 424 246.3C424 247.4 425.5 248.2 429.6 249.5C434.7 251 437.1 252 440.4 254.2C443.6 256.4 445.1 259.5 445.1 263.8C445.1 275.3 436.3 281.1 420.3 281.1C407.7 281.1 401.4 278 401.4 271.8C401.4 268.2 402.8 264.8 405.7 261.7C409.2 265.1 416 267.6 422.2 267.6C425.1 267.4 426.6 266.7 426.6 265.3Z" fill="#1D2165"/>
<path d="M205.5 146C203.6 144.5 201.2 143.2 198.3 142.1L148.8 123.1C151.5 123.3 154.1 123.4 156.6 123.4C173.3 123.4 187.1 119.3 197.9 111C221.3 93.1 220.7 62.7 220.7 61.5C220.6 57.6 217.3 54.4 213.4 54.6C209.5 54.7 206.3 58 206.5 61.9C206.5 62.1 207 86.2 189.3 99.7C185.1 102.9 180.2 105.3 174.7 106.9C190.5 91.8 191.3 69.4 191.3 68.3C191.4 64.4 188.3 61.1 184.4 61C180.5 60.9 177.2 64 177.1 67.9C177.1 68.1 176.4 88.6 161.6 99.3C158.5 101.5 155 103.2 151.1 104.3C162.5 92.2 163.1 75.5 163.1 74.7C163.2 70.8 160.1 67.5 156.2 67.4C152.3 67.3 149 70.4 148.9 74.3C148.9 74.5 148.2 89.6 137.6 97.3C130.9 102.2 121.3 103 109 100.6C92.6 97.4 82.2 91.3 78 82.3C71.7 68.9 80.8 52.1 81 51.8C83.2 47.9 81.8 42.9 77.9 40.7C74 38.5 69 39.8 66.8 43.8C66.3 44.7 56.1 63 60.6 81.9C57.6 79 55.3 75.9 53.7 72.4C45 53.8 57.5 31.1 57.7 30.7C59.9 26.8 58.5 21.8 54.6 19.6C50.7 17.4 45.7 18.7 43.5 22.7C42.9 23.8 28.8 49.1 36.7 73.8C31.6 69.3 27.9 64.3 25.5 58.7C16 36.9 30.7 13.3 30.8 13C33.2 9.2 32.1 4.2 28.3 1.7C24.5 -0.700002 19.5 0.399999 17 4.2C16.2 5.5 -2.5 35.2 10.4 65C20.1 87.4 44.5 102.9 82.9 111.2C86 112 98 114.8 99.3 115.1C99.1 115.1 98.9 115.1 98.9 115.1L49.8 118.6C49.8 118.6 54.8 146.7 92.1 129.9L15 185.3C-8.5 205.6 -0.700001 238.8 19.3 247.4C31.7 252.7 63.7 267.3 88.8 278.8C96.8 253.5 122.8 157.5 173.6 169.4C176.4 177.6 184.1 183.5 193.3 183.5C204.8 183.5 214.1 174.2 214.1 162.7C214 155.9 210.6 149.8 205.5 146ZM126.5 146.5C122.3 146.5 118.8 143.1 118.8 138.8C118.8 134.6 122.2 131.1 126.5 131.1C130.7 131.1 134.2 134.5 134.2 138.8C134.2 143 130.7 146.5 126.5 146.5Z" fill="#1D2165"/>
</svg>
