<?xml version="1.0" encoding="UTF-8" standalone="no"?>
<svg
   xmlns:dc="http://purl.org/dc/elements/1.1/"
   xmlns:cc="http://creativecommons.org/ns#"
   xmlns:rdf="http://www.w3.org/1999/02/22-rdf-syntax-ns#"
   xmlns:svg="http://www.w3.org/2000/svg"
   xmlns="http://www.w3.org/2000/svg"
   viewBox="0 0 188.97333 172.25333"
   height="172.25333"
   width="188.97333"
   xml:space="preserve"
   id="svg2"
   version="1.1"><metadata
     id="metadata8"><rdf:RDF><cc:Work
         rdf:about=""><dc:format>image/svg+xml</dc:format><dc:type
           rdf:resource="http://purl.org/dc/dcmitype/StillImage" /></cc:Work></rdf:RDF></metadata><defs
     id="defs6" /><g
     transform="matrix(1.3333333,0,0,-1.3333333,0,172.25333)"
     id="g10"><g
       transform="scale(0.1)"
       id="g12"><path
         id="path14"
         style="fill:#1c56a2;fill-opacity:1;fill-rule:nonzero;stroke:none"
         d="M 1417.32,0 H 0 V 1291.89 H 1417.32 V 0" /><path
         id="path16"
         style="fill:#ffffff;fill-opacity:1;fill-rule:nonzero;stroke:none"
         d="m 203.699,387.578 v -8.562 c 0,-2.09 -0.562,-3.039 -2.097,-3.039 -0.571,0 -1.707,0.382 -2.852,1.14 l -0.945,0.571 c -8.18,4.765 -16.735,7.039 -27.016,7.039 -30.43,0 -48.887,-19.981 -48.887,-53.067 0,-30.449 17.317,-48.32 46.606,-48.32 11.039,0 23.594,3.039 31.008,7.801 0.949,0.57 1.711,0.937 2.281,0.937 1.34,0 1.902,-0.937 1.902,-3.598 v -7.812 c 0,-6.457 -16.164,-11.617 -36.332,-11.617 -40.711,0 -65.437,23.422 -65.437,62.609 0,40.879 26.058,67.324 66.199,67.324 19.781,0 35.57,-5.136 35.57,-11.406" /><path
         id="path18"
         style="fill:#ffffff;fill-opacity:1;fill-rule:nonzero;stroke:none"
         d="m 259.359,321.563 -42.98,71.523 c -0.387,0.574 -0.574,1.34 -0.574,2.102 0,1.699 0.574,2.285 2.285,2.285 h 16.543 c 0.965,0 1.715,-0.586 2.285,-1.34 l 32.918,-58.399 33.656,58.399 c 0.387,0.754 1.137,1.34 2.098,1.34 h 11.414 c 1.902,0 3.047,-0.969 3.047,-2.481 0,-0.566 -0.192,-0.949 -0.766,-1.906 l -40.894,-69.043 v -50.965 c 0,-1.348 -1.141,-2.5 -2.473,-2.5 h -14.082 c -1.328,0 -2.477,1.152 -2.477,2.5 v 48.485" /><path
         id="path20"
         style="fill:#ffffff;fill-opacity:1;fill-rule:nonzero;stroke:none"
         d="m 351.426,343.438 h 14.078 c 16.156,0 23.961,6.671 23.961,20.546 0,12.746 -7.61,20.743 -19.969,20.743 h -18.07 z m 0,-60.098 h 19.211 c 17.488,0 26.437,7.988 26.437,23.586 0,15.976 -9.129,23.965 -27.578,23.965 h -18.07 z m 36.519,55.93 c 11.032,-2.485 16.926,-5.715 21.68,-11.235 4.953,-5.711 7.418,-13.125 7.418,-21.687 0,-22.246 -16.355,-35.77 -42.996,-35.77 h -39.176 c -1.324,0 -2.465,1.152 -2.465,2.5 v 121.914 c 0,1.336 1.141,2.481 2.465,2.481 h 36.715 c 24.535,0 37.855,-11.231 37.855,-31.582 0,-15.032 -7.429,-24.161 -21.496,-26.621" /><path
         id="path22"
         style="fill:#ffffff;fill-opacity:1;fill-rule:nonzero;stroke:none"
         d="m 453.824,383.203 v -38.047 h 39.375 c 1.332,0 2.477,-1.14 2.477,-2.468 v -9.321 c 0,-1.336 -1.145,-2.476 -2.477,-2.476 h -39.375 v -46.032 h 52.696 c 1.332,0 2.468,-1.14 2.468,-2.468 v -9.313 c 0,-1.348 -1.136,-2.5 -2.468,-2.5 h -69.239 c -1.34,0 -2.476,1.152 -2.476,2.5 v 121.914 c 0,1.336 1.136,2.481 2.476,2.481 h 65.434 c 1.332,0 2.476,-1.145 2.476,-2.481 v -9.328 c 0,-1.328 -1.144,-2.461 -2.476,-2.461 h -48.891" /><path
         id="path24"
         style="fill:#ffffff;fill-opacity:1;fill-rule:nonzero;stroke:none"
         d="m 548.082,341.926 h 13.52 c 16.918,0 24.531,6.648 24.531,21.308 0,13.692 -7.613,21.493 -20.735,21.493 h -17.316 z m 0,-12.758 v -56.09 c 0,-1.348 -1.141,-2.5 -2.469,-2.5 h -14.07 c -1.34,0 -2.48,1.152 -2.48,2.5 v 121.914 c 0,1.336 1.14,2.481 2.48,2.481 h 39.184 c 13.882,0 22.253,-3.43 28.343,-11.231 4.551,-5.898 7.035,-13.703 7.035,-21.867 0,-19.023 -12.75,-31.387 -33.289,-32.344 l 44.512,-57.062 c 0.567,-0.758 0.762,-1.129 0.953,-1.328 0.188,-0.192 0.188,-0.563 0.188,-0.95 0,-1.332 -0.949,-2.113 -2.656,-2.113 h -17.5 c -0.77,0 -1.528,0.391 -1.911,0.953 l -40.324,55.754 c -1.152,1.516 -1.707,1.883 -3.422,1.883 h -4.574" /><path
         id="path26"
         style="fill:#ffffff;fill-opacity:1;fill-rule:nonzero;stroke:none"
         d="m 723.828,387.578 v -8.562 c 0,-2.09 -0.574,-3.039 -2.09,-3.039 -0.566,0 -1.711,0.382 -2.859,1.14 l -0.949,0.571 c -8.184,4.765 -16.739,7.039 -27,7.039 -30.45,0 -48.899,-19.981 -48.899,-53.067 0,-30.449 17.309,-48.32 46.614,-48.32 11.035,0 23.582,3.039 31.011,7.801 0.949,0.57 1.699,0.937 2.27,0.937 1.328,0 1.902,-0.937 1.902,-3.598 v -7.812 c 0,-6.457 -16.16,-11.617 -36.328,-11.617 -40.715,0 -65.445,23.422 -65.445,62.609 0,40.879 26.066,67.324 66.207,67.324 19.773,0 35.566,-5.136 35.566,-11.406" /><path
         id="path28"
         style="fill:#ffffff;fill-opacity:1;fill-rule:nonzero;stroke:none"
         d="m 758.086,333.176 c 0,-16.543 2.656,-27.207 8.945,-36.145 7.407,-10.09 17.864,-15.402 30.996,-15.402 25.489,0 39.953,18.828 39.953,51.738 0,32.715 -14.652,51.36 -39.953,51.36 -13.132,0 -23.785,-5.137 -30.82,-15.215 -6.465,-9.348 -9.121,-19.61 -9.121,-36.336 z m -19.973,-0.383 c 0,21.492 4.184,36.133 13.696,47.551 10.836,12.929 24.902,18.64 46.011,18.64 39.2,0 60.118,-23.007 60.118,-65.617 0,-42.418 -20.918,-66.015 -58.583,-66.015 -23.015,0 -36.71,5.527 -47.734,18.839 -9.504,11.797 -13.508,25.5 -13.508,46.602" /><path
         id="path30"
         style="fill:#ffffff;fill-opacity:1;fill-rule:nonzero;stroke:none"
         d="m 889.902,372.355 v -99.277 c 0,-1.348 -1.14,-2.5 -2.48,-2.5 h -10.266 c -1.336,0 -2.468,1.152 -2.468,2.5 v 121.914 c 0,1.336 1.132,2.481 2.468,2.481 h 18.266 c 2.652,0 3.98,-0.969 4.93,-3.625 l 37.285,-105.95 35.761,104.055 c 1.512,4.551 2.469,5.52 5.899,5.52 h 18.469 c 1.316,0 2.454,-1.145 2.454,-2.481 V 273.078 c 0,-1.348 -1.138,-2.5 -2.454,-2.5 h -13.52 c -1.531,0 -2.476,1.152 -2.476,2.5 V 373.313 L 950,282.211 c -3.418,-10.293 -4.562,-11.633 -9.309,-11.633 h -10.664 c -4.175,0 -5.125,0.953 -7.617,8.192 l -24.336,70.578 -2.281,6.465 -2.277,7.031 c -1.336,3.418 -1.907,5.332 -3.614,9.511" /><path
         id="path32"
         style="fill:#ffffff;fill-opacity:1;fill-rule:nonzero;stroke:none"
         d="m 524.809,161.32 h 14.082 c 1.336,0 2.472,-1.14 2.472,-2.468 v -44.5 c 0,-6.481 -16.734,-11.622 -38.226,-11.622 -40.715,0 -65.449,23.59 -65.449,62.59 0,41.84 25.871,67.321 68.105,67.321 19.781,0 35.57,-4.95 35.57,-11.411 v -8.179 c 0,-2.473 -0.582,-3.422 -2.093,-3.422 -0.754,0 -2.665,0.762 -4.957,2.09 -6.836,4 -18.438,6.66 -28.336,6.66 -29.672,0 -48.317,-20.551 -48.317,-52.879 0,-30.621 17.313,-48.691 46.418,-48.691 13.125,0 18.258,1.711 18.258,5.902 v 36.141 c 0,1.328 1.144,2.468 2.473,2.468" /><path
         id="path34"
         style="fill:#ffffff;fill-opacity:1;fill-rule:nonzero;stroke:none"
         d="m 585.215,175.59 h 13.512 c 16.925,0 24.539,6.648 24.539,21.301 0,13.687 -7.614,21.488 -20.743,21.488 h -17.308 z m 0,-12.762 v -56.109 c 0,-1.321 -1.145,-2.469 -2.477,-2.469 h -14.066 c -1.336,0 -2.481,1.148 -2.481,2.469 v 121.922 c 0,1.347 1.145,2.48 2.481,2.48 h 39.18 c 13.882,0 22.261,-3.43 28.347,-11.23 4.555,-5.891 7.039,-13.692 7.039,-21.86 0,-19.031 -12.75,-31.39 -33.289,-32.34 l 44.504,-57.07 c 0.57,-0.75 0.758,-1.121 0.945,-1.32 0.204,-0.199 0.204,-0.582 0.204,-0.949 0,-1.332 -0.954,-2.102 -2.664,-2.102 h -17.5 c -0.766,0 -1.528,0.379 -1.907,0.961 l -40.316,55.73 c -1.145,1.52 -1.711,1.887 -3.434,1.887 h -4.566" /><path
         id="path36"
         style="fill:#ffffff;fill-opacity:1;fill-rule:nonzero;stroke:none"
         d="m 683.953,166.84 c 0,-16.559 2.656,-27.211 8.945,-36.141 7.415,-10.078 17.872,-15.41 30.997,-15.41 25.492,0 39.945,18.832 39.945,51.731 0,32.73 -14.652,51.359 -39.945,51.359 -13.125,0 -23.778,-5.141 -30.821,-15.219 -6.465,-9.32 -9.121,-19.601 -9.121,-36.32 z m -19.973,-0.379 c 0,21.48 4.184,36.129 13.696,47.539 10.84,12.93 24.914,18.641 46.035,18.641 39.16,0 60.078,-23.012 60.078,-65.621 0,-42.411 -20.918,-65.989 -58.562,-65.989 -23.02,0 -36.711,5.508 -47.739,18.821 -9.519,11.789 -13.508,25.488 -13.508,46.609" /><path
         id="path38"
         style="fill:#ffffff;fill-opacity:1;fill-rule:nonzero;stroke:none"
         d="m 886.145,231.121 h 10.281 c 1.328,0 2.469,-1.133 2.469,-2.48 v -86.532 c 0,-26.058 -17.11,-41.078 -46.59,-41.078 -31.028,0 -48.528,14.629 -48.528,40.321 v 87.289 c 0,1.347 1.145,2.48 2.473,2.48 h 14.094 c 1.316,0 2.476,-1.133 2.476,-2.48 V 144 c 0,-17.68 10.45,-27 30.239,-27 20.347,0 30.613,8.941 30.613,27 v 84.641 c 0,1.347 1.141,2.48 2.473,2.48" /><path
         id="path40"
         style="fill:#ffffff;fill-opacity:1;fill-rule:nonzero;stroke:none"
         d="m 940.305,169.309 h 13.316 c 17.492,0 26.613,8.16 26.613,23.589 0,15.403 -9.121,23.973 -25.285,23.973 h -14.644 z m 0,-14.27 v -48.32 c 0,-1.321 -1.145,-2.469 -2.485,-2.469 h -14.07 c -1.34,0 -2.473,1.148 -2.473,2.469 v 121.922 c 0,1.347 1.133,2.48 2.473,2.48 h 35.566 c 25.497,0 40.904,-13.883 40.904,-36.512 0,-14.281 -3.423,-23.211 -11.607,-29.871 -8.175,-6.847 -18.254,-9.699 -31.953,-9.699 h -16.355" /><path
         id="path42"
         style="fill:#ffffff;fill-opacity:1;fill-rule:nonzero;stroke:none"
         d="m 1237.18,399.004 h -131.8 l -61.53,-297.195 h 25.45 c 0,0 56.97,177.929 64.73,204.539 20.27,69.375 103.15,92.656 103.15,92.656" /><path
         id="path44"
         style="fill:#ffffff;fill-opacity:1;fill-rule:nonzero;stroke:none"
         d="m 1251.65,101.809 c 0,0 -28.16,139.152 -30.12,175.703 -1.79,33.718 0.8,50.976 20.44,72.578 19.63,21.59 110.1,48.914 110.1,48.914 h -37.88 c -1.57,-0.313 -114.53,-23.973 -123.04,-103.563 -2.12,-19.793 -6.15,-40.66 -11.07,-61.082 l 45.15,-132.55 h 26.42" /><path
         id="path46"
         style="fill:#ffffff;fill-opacity:1;fill-rule:nonzero;stroke:none"
         d="m 1261.22,399.004 c -1.47,-0.399 -93.09,-26.289 -113.11,-92.59 -2.77,-9.137 -11.28,-36.203 -21.3,-67.812 l -28.32,-136.793 h 25.47 c 0,0 45.52,107.101 54.78,193.632 8.57,80.157 110.43,103.563 110.43,103.563 h -27.95" /><path
         id="path48"
         style="fill:#ffffff;fill-opacity:1;fill-rule:nonzero;stroke:none"
         d="m 1111.91,437.766 c 0,16.402 13.3,29.714 29.7,29.714 16.42,0 29.72,-13.312 29.72,-29.714 0,-16.418 -13.3,-29.707 -29.72,-29.707 -16.4,0 -29.7,13.289 -29.7,29.707" /><path
         id="path50"
         style="fill:#ffffff;fill-opacity:1;fill-rule:nonzero;stroke:none"
         d="m 1195.97,467.48 c -7.06,0 -13.54,-2.46 -18.64,-6.582 4.88,-6.433 7.81,-14.445 7.81,-23.132 0,-8.692 -2.93,-16.684 -7.81,-23.125 5.1,-4.114 11.58,-6.582 18.64,-6.582 16.4,0 29.7,13.289 29.7,29.707 0,16.402 -13.3,29.714 -29.7,29.714" /><path
         id="path52"
         style="fill:#ffffff;fill-opacity:1;fill-rule:nonzero;stroke:none"
         d="m 1248.9,467.48 c -6.95,0 -13.32,-2.39 -18.38,-6.398 4.72,-6.363 7.55,-14.234 7.55,-22.769 0,-8.86 -3.03,-16.985 -8.06,-23.481 5.13,-4.234 11.71,-6.773 18.89,-6.773 16.4,0 29.7,13.289 29.7,29.707 0,16.402 -13.3,29.714 -29.7,29.714" /></g></g></svg>