<?xml version="1.0" encoding="UTF-8" standalone="no"?>
<svg
   xmlns:dc="http://purl.org/dc/elements/1.1/"
   xmlns:cc="http://creativecommons.org/ns#"
   xmlns:rdf="http://www.w3.org/1999/02/22-rdf-syntax-ns#"
   xmlns:svg="http://www.w3.org/2000/svg"
   xmlns="http://www.w3.org/2000/svg"
   viewBox="0 0 377.94666 110.78667"
   height="110.78667"
   width="377.94666"
   xml:space="preserve"
   id="svg2"
   version="1.1"><metadata
     id="metadata8"><rdf:RDF><cc:Work
         rdf:about=""><dc:format>image/svg+xml</dc:format><dc:type
           rdf:resource="http://purl.org/dc/dcmitype/StillImage" /></cc:Work></rdf:RDF></metadata><defs
     id="defs6" /><g
     transform="matrix(1.3333333,0,0,-1.3333333,0,110.78667)"
     id="g10"><g
       transform="scale(0.1)"
       id="g12"><path
         id="path14"
         style="fill:#231f20;fill-opacity:1;fill-rule:nonzero;stroke:none"
         d="m 230.77,649.758 v -19.414 c 0,-4.746 -1.29,-6.899 -4.762,-6.899 -1.313,0 -3.879,0.871 -6.469,2.602 l -2.144,1.277 c -18.555,10.813 -37.961,15.969 -61.25,15.969 -69.0044,0 -110.8637,-45.313 -110.8637,-120.332 0,-69.047 39.2578,-109.57 105.6757,-109.57 25.027,0 53.508,6.89 70.332,17.695 2.117,1.285 3.856,2.129 5.156,2.129 3.035,0 4.325,-2.129 4.325,-8.176 v -17.695 c 0,-14.656 -36.676,-26.328 -82.379,-26.328 C 56.0664,381.016 0,434.094 0,522.961 c 0,92.691 59.1016,152.66 150.117,152.66 44.844,0 80.653,-11.644 80.653,-25.863" /><path
         id="path16"
         style="fill:#231f20;fill-opacity:1;fill-rule:nonzero;stroke:none"
         d="m 356.965,500.066 -97.453,162.18 c -0.891,1.309 -1.289,3.035 -1.289,4.762 0,3.851 1.289,5.18 5.183,5.18 h 37.492 c 2.2,0 3.875,-1.329 5.188,-3.032 L 380.73,536.73 457.043,669.156 c 0.879,1.703 2.559,3.032 4.754,3.032 h 25.871 c 4.312,0 6.902,-2.188 6.902,-5.625 0,-1.282 -0.422,-2.145 -1.726,-4.317 L 400.129,505.691 V 390.117 c 0,-3.054 -2.602,-5.652 -5.625,-5.652 h -31.938 c -3.003,0 -5.601,2.598 -5.601,5.652 v 109.949" /><path
         id="path18"
         style="fill:#231f20;fill-opacity:1;fill-rule:nonzero;stroke:none"
         d="m 565.723,549.668 h 31.922 c 36.632,0 54.328,15.129 54.328,46.594 0,28.894 -17.254,47.031 -45.285,47.031 h -40.965 z m 0,-136.277 h 43.554 c 39.661,0 59.953,18.113 59.953,53.472 0,36.235 -20.683,54.348 -62.542,54.348 h -40.965 z m 82.824,126.812 c 25,-5.625 38.348,-12.945 49.129,-25.457 11.23,-12.961 16.804,-29.766 16.804,-49.187 0,-50.442 -37.07,-81.094 -97.476,-81.094 h -88.82 c -3.008,0 -5.594,2.598 -5.594,5.652 v 276.446 c 0,3.039 2.586,5.625 5.594,5.625 h 83.242 c 55.652,0 85.832,-25.458 85.832,-71.614 0,-34.082 -16.828,-54.781 -48.711,-60.371" /><path
         id="path20"
         style="fill:#231f20;fill-opacity:1;fill-rule:nonzero;stroke:none"
         d="m 797.898,639.836 v -86.273 h 89.29 c 3.039,0 5.605,-2.594 5.605,-5.602 v -21.125 c 0,-3.035 -2.566,-5.625 -5.605,-5.625 h -89.29 V 416.848 h 119.473 c 3.027,0 5.625,-2.602 5.625,-5.61 v -21.121 c 0,-3.054 -2.598,-5.652 -5.625,-5.652 h -156.98 c -3.036,0 -5.606,2.598 -5.606,5.652 v 276.446 c 0,3.039 2.57,5.625 5.606,5.625 h 148.371 c 3.023,0 5.593,-2.586 5.593,-5.625 v -21.141 c 0,-3.012 -2.57,-5.586 -5.593,-5.586 H 797.898" /><path
         id="path22"
         style="fill:#231f20;fill-opacity:1;fill-rule:nonzero;stroke:none"
         d="m 1011.62,546.23 h 30.67 c 38.37,0 55.62,15.086 55.62,48.321 0,31.047 -17.25,48.742 -47.01,48.742 h -39.28 z m 0,-28.917 V 390.117 c 0,-3.054 -2.57,-5.652 -5.58,-5.652 h -31.907 c -3.039,0 -5.625,2.598 -5.625,5.652 v 276.446 c 0,3.039 2.586,5.625 5.625,5.625 h 88.857 c 31.47,0 50.45,-7.77 64.27,-25.458 10.32,-13.378 15.94,-31.078 15.94,-49.589 0,-43.137 -28.92,-71.172 -75.47,-73.34 l 100.91,-129.387 c 1.29,-1.726 1.73,-2.566 2.15,-3.016 0.44,-0.414 0.44,-1.281 0.44,-2.168 0,-3.007 -2.17,-4.765 -6.02,-4.765 h -39.68 c -1.75,0 -3.46,0.894 -4.34,2.176 l -91.41,126.394 c -2.62,3.442 -3.9,4.278 -7.78,4.278 h -10.38" /><path
         id="path24"
         style="fill:#231f20;fill-opacity:1;fill-rule:nonzero;stroke:none"
         d="m 1410.13,649.758 v -19.414 c 0,-4.746 -1.31,-6.899 -4.74,-6.899 -1.29,0 -3.88,0.871 -6.49,2.602 l -2.15,1.277 c -18.56,10.813 -37.95,15.969 -61.23,15.969 -69.03,0 -110.87,-45.313 -110.87,-120.332 0,-69.047 39.26,-109.57 105.69,-109.57 25.02,0 53.48,6.89 70.33,17.695 2.15,1.285 3.85,2.129 5.14,2.129 3.01,0 4.32,-2.129 4.32,-8.176 v -17.695 c 0,-14.656 -36.65,-26.328 -82.38,-26.328 -92.3,0 -148.38,53.078 -148.38,141.945 0,92.691 59.1,152.66 150.1,152.66 44.85,0 80.66,-11.644 80.66,-25.863" /><path
         id="path26"
         style="fill:#231f20;fill-opacity:1;fill-rule:nonzero;stroke:none"
         d="m 1487.81,526.398 c 0,-37.519 6.02,-61.703 20.29,-81.964 16.77,-22.871 40.49,-34.922 70.28,-34.922 57.77,0 90.57,42.695 90.57,117.324 0,74.18 -33.22,116.457 -90.57,116.457 -29.79,0 -53.95,-11.645 -69.89,-34.504 -14.66,-21.191 -20.68,-44.465 -20.68,-82.391 z m -45.29,-0.871 c 0,48.743 9.48,81.934 31.04,107.825 24.59,29.316 56.48,42.269 104.35,42.269 88.87,0 136.3,-52.176 136.3,-148.785 0,-96.199 -47.43,-149.68 -132.82,-149.68 -52.19,0 -83.24,12.524 -108.25,42.699 -21.54,26.754 -30.62,57.821 -30.62,105.672" /><path
         id="path28"
         style="fill:#231f20;fill-opacity:1;fill-rule:nonzero;stroke:none"
         d="M 1786.69,615.234 V 390.117 c 0,-3.054 -2.59,-5.652 -5.63,-5.652 h -23.27 c -3.03,0 -5.6,2.598 -5.6,5.652 v 276.446 c 0,3.039 2.57,5.625 5.6,5.625 h 41.41 c 6.02,0 9.03,-2.188 11.18,-8.211 l 84.55,-240.247 81.1,235.95 c 3.42,10.32 5.6,12.508 13.36,12.508 h 41.86 c 2.99,0 5.59,-2.586 5.59,-5.625 V 390.117 c 0,-3.054 -2.6,-5.652 -5.59,-5.652 h -30.62 c -3.48,0 -5.63,2.598 -5.63,5.652 V 617.402 L 1922.97,410.82 c -7.76,-23.308 -10.34,-26.355 -21.1,-26.355 h -24.18 c -9.49,0 -11.64,2.176 -17.28,18.562 l -55.19,160.032 -5.18,14.668 -5.16,15.933 c -3.03,7.758 -4.31,12.094 -8.19,21.574" /><path
         id="path30"
         style="fill:#231f20;fill-opacity:1;fill-rule:nonzero;stroke:none"
         d="m 958.867,136.719 h 31.934 c 3.015,0 5.586,-2.586 5.586,-5.598 V 30.2031 c 0,-14.6836 -37.942,-26.32419 -86.68,-26.32419 -92.297,0 -148.406,53.47659 -148.406,141.91009 0,94.875 58.679,152.649 154.429,152.649 44.868,0 80.657,-11.219 80.657,-25.872 v -18.55 c 0,-5.61 -1.309,-7.754 -4.746,-7.754 -1.7,0 -6.028,1.734 -11.25,4.746 -15.496,9.082 -41.805,15.097 -64.239,15.097 -67.273,0 -109.55,-46.582 -109.55,-119.906 0,-69.4295 39.25,-110.4099 105.234,-110.4099 29.766,0 41.406,3.8672 41.406,13.3711 v 81.9608 c 0,3.012 2.617,5.598 5.625,5.598" /><path
         id="path32"
         style="fill:#231f20;fill-opacity:1;fill-rule:nonzero;stroke:none"
         d="m 1095.81,169.07 h 30.65 c 38.39,0 55.65,15.078 55.65,48.301 0,31.035 -17.26,48.734 -47.04,48.734 h -39.26 z m 0,-28.922 V 12.9102 c 0,-2.98832 -2.57,-5.5977 -5.59,-5.5977 h -31.9 c -3.04,0 -5.62,2.60938 -5.62,5.5977 V 289.387 c 0,3.047 2.58,5.625 5.62,5.625 h 88.82 c 31.49,0 50.49,-7.793 64.31,-25.473 10.32,-13.355 15.94,-31.043 15.94,-49.578 0,-43.137 -28.92,-71.172 -75.47,-73.32 L 1252.81,17.2266 c 1.31,-1.7071 1.73,-2.5469 2.17,-3.0078 0.45,-0.4415 0.45,-1.3086 0.45,-2.1485 0,-3.01561 -2.18,-4.7578 -6.03,-4.7578 h -39.68 c -1.75,0 -3.48,0.86328 -4.34,2.16797 L 1113.96,135.852 c -2.6,3.457 -3.89,4.296 -7.79,4.296 h -10.36" /><path
         id="path34"
         style="fill:#231f20;fill-opacity:1;fill-rule:nonzero;stroke:none"
         d="m 1319.71,149.23 c 0,-37.542 6.02,-61.7027 20.28,-81.9331 16.82,-22.8711 40.53,-34.9414 70.29,-34.9414 57.8,0 90.57,42.6953 90.57,117.2925 0,74.207 -33.21,116.457 -90.57,116.457 -29.76,0 -53.92,-11.64 -69.89,-34.496 -14.66,-21.148 -20.68,-44.453 -20.68,-82.379 z m -45.29,-0.863 c 0,48.711 9.49,81.938 31.05,107.817 24.58,29.324 56.49,42.254 104.39,42.254 88.8,0 136.23,-52.176 136.23,-148.79 C 1546.09,53.4766 1498.66,0 1413.29,0 c -52.19,0 -83.24,12.5117 -108.24,42.6953 -21.59,26.7305 -30.63,57.7927 -30.63,105.6717" /><path
         id="path36"
         style="fill:#231f20;fill-opacity:1;fill-rule:nonzero;stroke:none"
         d="m 1778.16,295.012 h 23.32 c 3.01,0 5.6,-2.578 5.6,-5.625 V 93.1523 C 1807.08,34.0547 1768.29,0 1701.44,0 1631.08,0 1591.43,33.1914 1591.43,91.4375 V 289.387 c 0,3.047 2.58,5.625 5.59,5.625 h 31.94 c 2.98,0 5.62,-2.578 5.62,-5.625 V 97.4492 c 0,-40.0937 23.69,-61.2187 68.55,-61.2187 46.16,0 69.43,20.2617 69.43,61.2187 V 289.387 c 0,3.047 2.6,5.625 5.6,5.625" /><path
         id="path38"
         style="fill:#231f20;fill-opacity:1;fill-rule:nonzero;stroke:none"
         d="m 1900.98,154.836 h 30.2 c 39.66,0 60.34,18.516 60.34,53.492 0,34.926 -20.68,54.348 -57.33,54.348 h -33.21 z m 0,-32.356 V 12.9102 c 0,-2.98832 -2.59,-5.5977 -5.63,-5.5977 h -31.91 c -3.03,0 -5.6,2.60938 -5.6,5.5977 V 289.387 c 0,3.047 2.57,5.625 5.6,5.625 h 80.65 c 57.82,0 92.75,-31.496 92.75,-82.805 0,-32.371 -7.78,-52.637 -26.31,-67.742 -18.54,-15.52 -41.39,-21.985 -72.46,-21.985 h -37.09" /><path
         id="path40"
         style="fill:#231f20;fill-opacity:1;fill-rule:nonzero;stroke:none"
         d="M 2574.12,675.664 H 2275.28 L 2135.75,1.76953 h 57.71 c 0,0 129.19,403.45747 146.79,463.78947 45.95,157.324 233.87,210.105 233.87,210.105" /><path
         id="path42"
         style="fill:#231f20;fill-opacity:1;fill-rule:nonzero;stroke:none"
         d="m 2606.93,1.76953 c 0,0 -63.85,315.53547 -68.29,398.39447 -4.07,76.469 1.82,115.598 46.35,164.582 44.51,48.953 249.66,110.918 249.66,110.918 h -85.9 c -3.56,-0.707 -259.71,-54.363 -278.99,-234.836 -4.81,-44.859 -13.96,-92.183 -25.12,-138.492 L 2547.04,1.76953 h 59.89" /><path
         id="path44"
         style="fill:#231f20;fill-opacity:1;fill-rule:nonzero;stroke:none"
         d="m 2628.64,675.664 c -3.35,-0.906 -211.06,-59.609 -256.48,-209.949 -6.26,-20.727 -25.58,-82.11 -48.29,-153.75 L 2259.65,1.76953 h 57.75 c 0,0 103.23,242.85947 124.21,439.05847 19.43,181.762 250.4,234.836 250.4,234.836 h -63.37" /><path
         id="path46"
         style="fill:#231f20;fill-opacity:1;fill-rule:nonzero;stroke:none"
         d="m 2290.1,763.555 c 0,37.183 30.13,67.363 67.33,67.363 37.23,0 67.39,-30.18 67.39,-67.363 0,-37.223 -30.16,-67.364 -67.39,-67.364 -37.2,0 -67.33,30.141 -67.33,67.364" /><path
         id="path48"
         style="fill:#231f20;fill-opacity:1;fill-rule:nonzero;stroke:none"
         d="m 2480.67,830.918 c -16.01,0 -30.69,-5.574 -42.25,-14.922 11.04,-14.594 17.69,-32.73 17.69,-52.441 0,-19.707 -6.65,-37.825 -17.69,-52.438 11.56,-9.32 26.24,-14.926 42.25,-14.926 37.2,0 67.37,30.141 67.37,67.364 0,37.183 -30.17,67.363 -67.37,67.363" /><path
         id="path50"
         style="fill:#231f20;fill-opacity:1;fill-rule:nonzero;stroke:none"
         d="m 2600.69,830.918 c -15.74,0 -30.2,-5.426 -41.68,-14.504 10.73,-14.437 17.12,-32.262 17.12,-51.617 0,-20.086 -6.86,-38.508 -18.27,-53.234 11.63,-9.61 26.55,-15.372 42.83,-15.372 37.2,0 67.37,30.141 67.37,67.364 0,37.183 -30.17,67.363 -67.37,67.363" /></g></g></svg>