<?xml version="1.0" encoding="UTF-8" standalone="no"?>
<svg
   xmlns:dc="http://purl.org/dc/elements/1.1/"
   xmlns:cc="http://creativecommons.org/ns#"
   xmlns:rdf="http://www.w3.org/1999/02/22-rdf-syntax-ns#"
   xmlns:svg="http://www.w3.org/2000/svg"
   xmlns="http://www.w3.org/2000/svg"
   xmlns:sodipodi="http://sodipodi.sourceforge.net/DTD/sodipodi-0.dtd"
   xmlns:inkscape="http://www.inkscape.org/namespaces/inkscape"
   viewBox="0 0 68.026665 72.133331"
   height="72.133331"
   width="68.026665"
   xml:space="preserve"
   id="svg2"
   version="1.1"
   sodipodi:docname="HBG.svg"
   inkscape:version="0.92.4 (5da689c313, 2019-01-14)"><sodipodi:namedview
     pagecolor="#ffffff"
     bordercolor="#666666"
     borderopacity="1"
     objecttolerance="10"
     gridtolerance="10"
     guidetolerance="10"
     inkscape:pageopacity="0"
     inkscape:pageshadow="2"
     inkscape:window-width="640"
     inkscape:window-height="480"
     id="namedview102"
     showgrid="false"
     inkscape:pagecheckerboard="true"
     inkscape:zoom="3.2717191"
     inkscape:cx="34.013332"
     inkscape:cy="36.066666"
     inkscape:window-x="693"
     inkscape:window-y="252"
     inkscape:window-maximized="0"
     inkscape:current-layer="svg2" /><metadata
     id="metadata8"><rdf:RDF><cc:Work
         rdf:about=""><dc:format>image/svg+xml</dc:format><dc:type
           rdf:resource="http://purl.org/dc/dcmitype/StillImage" /><dc:title></dc:title></cc:Work></rdf:RDF></metadata><defs
     id="defs6" /><g
     transform="matrix(1.3333333,0,0,-1.3333333,0,72.133333)"
     id="g10"><g
       transform="scale(0.1)"
       id="g12"><path
         id="path14"
         style="fill:#ffffff;fill-opacity:1;fill-rule:nonzero;stroke:none"
         d="M 396.777,421.133 H 255.203 v 0 h -0.082 v 0 H 113.453 c -0.094,-257.227 0,-257.227 0,-269.461 0,-11.524 4.828,-23.723 23.125,-28.457 18.277,-4.738 86.68,-20.832 98.844,-23.6916 16.582,-3.8867 19.523,-15.8789 19.734,-16.8359 v -0.0977 l 0.016,0.0469 0.008,-0.0469 v 0.0977 c 0.211,0.957 3.14,12.9492 19.715,16.8359 12.168,2.8596 80.585,18.9536 98.855,23.6916 18.281,4.734 23.027,16.933 23.027,28.457 0,12.234 0.086,12.234 0,269.461 v 0" /><path
         id="path16"
         style="fill:#ed1c24;fill-opacity:1;fill-rule:nonzero;stroke:none"
         d="m 217.34,274.574 h -61.402 c -6.215,-2.351 -20.883,-9.347 -20.883,-23.051 0,-4.55 2.07,-7.91 3.84,-9.96 h 44.625 l 33.82,33.011" /><path
         id="path18"
         style="fill:none;stroke:#ffffff;stroke-width:0.57560098;stroke-linecap:butt;stroke-linejoin:miter;stroke-miterlimit:4;stroke-dasharray:none;stroke-opacity:1"
         d="m 217.34,274.574 h -61.402 c -6.215,-2.351 -20.883,-9.347 -20.883,-23.051 0,-4.55 2.07,-7.91 3.84,-9.96 h 44.625 z" /><path
         id="path20"
         style="fill:#ed1c24;fill-opacity:1;fill-rule:nonzero;stroke:none"
         d="m 253.84,310.215 1.25,-1.274 0.012,-0.011 1.253,1.285 31.672,-30.906 v 62.785 h -65.843 v -62.781 l 31.656,30.902" /><path
         id="path22"
         style="fill:none;stroke:#ffffff;stroke-width:0.57560098;stroke-linecap:butt;stroke-linejoin:miter;stroke-miterlimit:4;stroke-dasharray:none;stroke-opacity:1"
         d="m 253.84,310.215 1.25,-1.274 0.012,-0.011 1.253,1.285 31.672,-30.906 v 62.785 h -65.843 v -62.781 z" /><path
         id="path24"
         style="fill:#ed1c24;fill-opacity:1;fill-rule:nonzero;stroke:none"
         d="m 186.73,237.961 h -45.367 v -41.106 h 5.762 v -16.367 h 25.27 v 16.836 h 19.953 v 39.035 c -2.399,0.184 -4.278,0.879 -5.618,1.602" /><path
         id="path26"
         style="fill:none;stroke:#ffffff;stroke-width:0.57560098;stroke-linecap:butt;stroke-linejoin:miter;stroke-miterlimit:4;stroke-dasharray:none;stroke-opacity:1"
         d="m 186.73,237.961 h -45.367 v -41.106 h 5.762 v -16.367 h 25.27 v 16.836 h 19.953 v 39.035 c -2.399,0.184 -4.278,0.879 -5.618,1.602 z" /><path
         id="path28"
         style="fill:#ed1c24;fill-opacity:1;fill-rule:nonzero;stroke:none"
         d="m 305.996,238.457 c -1.523,-1.008 -4.922,-2.801 -9.758,-2.812 -0.008,0 -0.015,0 -0.027,0 -4.773,0 -7.859,1.269 -9.356,2.089 -1.574,-0.742 -4.875,-1.921 -9.746,-1.921 -4.629,0.007 -8.23,1.57 -9.992,2.5 -1.656,-1.047 -5.144,-2.422 -12.019,-2.403 -6.86,-0.019 -10.352,1.356 -12.008,2.403 -1.758,-0.93 -5.363,-2.493 -9.992,-2.5 -4.86,0 -8.16,1.191 -9.739,1.921 -1.496,-0.82 -4.593,-2.089 -9.39,-2.089 -4.828,0.011 -8.215,1.804 -9.746,2.812 -1.535,-0.555 -4.758,-1.602 -8.27,-1.98 v -39.153 h 14.219 v -16.347 h 25.558 v 15.429 h 38.489 v -15.429 h 25.554 v 16.347 h 14.485 v 39.153 c -3.516,0.39 -6.731,1.425 -8.262,1.98" /><path
         id="path30"
         style="fill:none;stroke:#ffffff;stroke-width:0.57560098;stroke-linecap:butt;stroke-linejoin:miter;stroke-miterlimit:4;stroke-dasharray:none;stroke-opacity:1"
         d="m 305.996,238.457 c -1.523,-1.008 -4.922,-2.801 -9.758,-2.812 -0.008,0 -0.015,0 -0.027,0 -4.773,0 -7.859,1.269 -9.356,2.089 -1.574,-0.742 -4.875,-1.921 -9.746,-1.921 -4.629,0.007 -8.23,1.57 -9.992,2.5 -1.656,-1.047 -5.144,-2.422 -12.019,-2.403 -6.86,-0.019 -10.352,1.356 -12.008,2.403 -1.758,-0.93 -5.363,-2.493 -9.992,-2.5 -4.86,0 -8.16,1.191 -9.739,1.921 -1.496,-0.82 -4.593,-2.089 -9.39,-2.089 -4.828,0.011 -8.215,1.804 -9.746,2.812 -1.535,-0.555 -4.758,-1.602 -8.27,-1.98 v -39.153 h 14.219 v -16.347 h 25.558 v 15.429 h 38.489 v -15.429 h 25.554 v 16.347 h 14.485 v 39.153 c -3.516,0.39 -6.731,1.425 -8.262,1.98 z" /><path
         id="path32"
         style="fill:#ed1c24;fill-opacity:1;fill-rule:nonzero;stroke:none"
         d="m 354.297,274.574 h -61.426 l 33.817,-33.011 h 44.652 c 1.765,2.05 3.836,5.41 3.836,9.96 0,13.704 -14.656,20.7 -20.879,23.051" /><path
         id="path34"
         style="fill:none;stroke:#ffffff;stroke-width:0.57560098;stroke-linecap:butt;stroke-linejoin:miter;stroke-miterlimit:4;stroke-dasharray:none;stroke-opacity:1"
         d="m 354.297,274.574 h -61.426 l 33.817,-33.011 h 44.652 c 1.765,2.05 3.836,5.41 3.836,9.96 0,13.704 -14.656,20.7 -20.879,23.051 z" /><path
         id="path36"
         style="fill:#ed1c24;fill-opacity:1;fill-rule:nonzero;stroke:none"
         d="m 317.859,236.359 v -39.035 h 19.7 v -16.836 h 25.254 v 15.762 0.605 h 6.054 v 41.106 h -45.383 c -1.343,-0.723 -3.23,-1.426 -5.625,-1.602" /><path
         id="path38"
         style="fill:none;stroke:#ffffff;stroke-width:0.57560098;stroke-linecap:butt;stroke-linejoin:miter;stroke-miterlimit:4;stroke-dasharray:none;stroke-opacity:1"
         d="m 317.859,236.359 v -39.035 h 19.7 v -16.836 h 25.254 v 15.762 0.605 h 6.054 v 41.106 h -45.383 c -1.343,-0.723 -3.23,-1.426 -5.625,-1.602 z" /><path
         id="path40"
         style="fill:#ed1c24;fill-opacity:1;fill-rule:nonzero;stroke:none"
         d="m 367.793,191.855 v -16.347 h -35.215 v 16.816 h -27.82 v -16.347 h -35.512 v 15.429 h -28.531 v -15.429 h -35.52 v 16.347 h -27.836 v -16.816 h -35.203 v 16.347 H 113.43 c -0.012,-31.14 -0.012,-34.246 -0.012,-40.183 0,-11.524 4.844,-23.723 23.113,-28.457 18.274,-4.738 86.692,-20.832 98.856,-23.6916 16.582,-3.8867 19.676,-16.9336 19.676,-16.9336 0,0 3.226,13.0469 19.8,16.9336 12.168,2.8596 80.575,18.9536 98.848,23.6916 18.281,4.734 23.113,16.933 23.113,28.457 0,5.937 0,9.043 0,40.183 h -29.031" /><path
         id="path42"
         style="fill:none;stroke:#ffffff;stroke-width:0.57560098;stroke-linecap:butt;stroke-linejoin:miter;stroke-miterlimit:4;stroke-dasharray:none;stroke-opacity:1"
         d="m 367.793,191.855 v -16.347 h -35.215 v 16.816 h -27.82 v -16.347 h -35.512 v 15.429 h -28.531 v -15.429 h -35.52 v 16.347 h -27.836 v -16.816 h -35.203 v 16.347 H 113.43 c -0.012,-31.14 -0.012,-34.246 -0.012,-40.183 0,-11.524 4.844,-23.723 23.113,-28.457 18.274,-4.738 86.692,-20.832 98.856,-23.6916 16.582,-3.8867 19.676,-16.9336 19.676,-16.9336 0,0 3.226,13.0469 19.8,16.9336 12.168,2.8596 80.575,18.9536 98.848,23.6916 18.281,4.734 23.113,16.933 23.113,28.457 0,5.937 0,9.043 0,40.183 z" /><path
         id="path44"
         style="fill:#ed1c24;fill-opacity:1;fill-rule:nonzero;stroke:none"
         d="M 228.824,365.465 V 356.5 l 6.235,-0.008 v 9.676 h 16.05 V 356.5 h 7.993 v 9.668 h 16.054 V 356.5 h 6.231 v 8.965 h 3.152 l -29.418,22.773 v 0.004 l -0.008,-0.004 -29.422,-22.773 h 3.133" /><path
         id="path46"
         style="fill:none;stroke:#ffffff;stroke-width:0.57560098;stroke-linecap:butt;stroke-linejoin:miter;stroke-miterlimit:4;stroke-dasharray:none;stroke-opacity:1"
         d="M 228.824,365.465 V 356.5 l 6.235,-0.008 v 9.676 h 16.05 V 356.5 h 7.993 v 9.668 h 16.054 V 356.5 h 6.231 v 8.965 h 3.152 l -29.418,22.773 v 0.004 l -0.008,-0.004 -29.422,-22.773 z" /><path
         id="path48"
         style="fill:#ed1c24;fill-opacity:1;fill-rule:nonzero;stroke:none"
         d="m 255.121,389.504 c 1.422,0 2.57,1.156 2.57,2.57 0,1.422 -1.148,2.567 -2.57,2.567 -1.43,0 -2.594,-1.145 -2.594,-2.567 0,-1.414 1.164,-2.57 2.594,-2.57" /><path
         id="path50"
         style="fill:#ed1c24;fill-opacity:1;fill-rule:nonzero;stroke:none"
         d="m 259.973,404.371 c 0,0 -1.203,-0.406 -1.743,-0.473 v 0 c -0.183,-0.019 -0.433,-0.035 -0.667,-0.035 -0.106,0 -0.2,0.004 -0.293,0.004 0.043,0.465 0.093,1.094 0.093,1.66 -0.023,0.715 0.774,2.321 0.774,2.325 l 0.679,1.3 -1.429,-0.363 c 0,-0.004 -1.68,-0.41 -2.274,-0.398 -0.586,-0.012 -2.277,0.398 -2.277,0.398 l -1.43,0.356 0.68,-1.293 c 0.023,-0.004 0.797,-1.61 0.773,-2.325 0,-0.566 0.047,-1.195 0.094,-1.664 -0.094,0 -0.187,0 -0.281,0 -0.246,0 -0.492,0.016 -0.68,0.035 -0.539,0.067 -1.738,0.477 -1.738,0.477 l -0.863,0.305 v -3.125 c 0,-0.832 0.16,-2.512 0.16,-2.528 l 0.105,-0.992 0.879,0.485 c -0.008,0 0.918,0.5 1.375,0.625 0.246,0.066 0.645,0.156 0.985,0.242 0,-0.11 0,-0.207 0,-0.313 0,-0.289 -0.024,-0.586 -0.036,-0.847 -0.054,-0.649 -0.808,-2.891 -0.808,-2.895 l -0.34,-0.965 0.281,0.024 c 0.703,0.953 1.84,1.586 3.129,1.586 1.281,0 2.418,-0.633 3.133,-1.59 l 0.262,-0.028 -0.332,0.973 c -0.02,0.004 -0.762,2.246 -0.821,2.895 -0.023,0.261 -0.023,0.558 -0.023,0.847 0,0.106 0,0.207 0,0.313 0.324,-0.078 0.707,-0.172 0.961,-0.242 0.469,-0.125 1.387,-0.629 1.387,-0.625 l 0.878,-0.485 0.11,0.992 c 0,0.016 0.164,1.696 0.164,2.528 v 3.125 l -0.867,-0.309 v 0" /><path
         id="path52"
         style="fill:#ed1c24;fill-opacity:1;fill-rule:nonzero;stroke:none"
         d="m 169.137,355.758 c 1.816,0 3.297,-1.465 3.297,-3.293 0,-1.817 -1.481,-3.285 -3.297,-3.285 -1.817,0 -3.285,1.468 -3.285,3.285 0,1.828 1.468,3.293 3.285,3.293" /><path
         id="path54"
         style="fill:#ed1c24;fill-opacity:1;fill-rule:nonzero;stroke:none"
         d="m 170.789,347.184 h -3.293 v -11.223 h 3.293 v 11.223 0" /><path
         id="path56"
         style="fill:#ed1c24;fill-opacity:1;fill-rule:nonzero;stroke:none"
         d="m 341.086,355.758 c 1.824,0 3.301,-1.465 3.301,-3.293 0,-1.817 -1.477,-3.285 -3.301,-3.285 -1.816,0 -3.293,1.468 -3.293,3.285 0,1.828 1.477,3.293 3.293,3.293" /><path
         id="path58"
         style="fill:#ed1c24;fill-opacity:1;fill-rule:nonzero;stroke:none"
         d="m 342.742,347.184 h -3.308 v -11.223 h 3.308 v 11.223 0" /><path
         id="path60"
         style="fill:#ed1c24;fill-opacity:1;fill-rule:nonzero;stroke:none"
         d="m 394.883,540.973 v -4.446 h -6.875 v 4.446 h -10.012 v -4.446 h -6.851 v 4.446 h -10.04 v -11.782 h 4.547 v -18.043 h -7.429 v -11.613 h -14.375 v 11.613 h -7.442 v 18.043 h 4.551 v 11.782 h -10.019 v -4.446 h -6.868 v 4.446 h -10.015 v -4.446 h -6.875 v 4.446 h -10.024 v -11.782 h 4.563 v -18.043 h -7.442 v -11.613 h -14.375 v 11.613 h -7.441 v 18.043 h 4.551 v 11.782 h -10.02 v -4.446 h -6.863 v 4.446 h -10.027 v -4.446 h -6.86 v 4.446 h -10.023 v -11.782 h 4.547 v -18.043 h -7.45 v -11.613 h -14.347 v 11.613 h -7.461 v 18.043 h 4.558 v 11.782 h -10.023 v -4.446 h -6.859 v 4.446 H 186.16 v -4.446 h -6.867 v 4.446 h -10.016 v -11.782 h 4.551 v -18.043 h -7.449 v -11.613 h -14.367 v 11.613 h -7.446 v 18.043 h 4.567 v 11.782 h -10.039 v -4.446 h -6.852 v 4.446 h -10.039 v -4.446 h -6.851 v 4.446 h -10.039 v -11.782 h 4.55 v -30.187 l 17.5,-18.598 v -29.144 h -8.679 v -30.129 h 272.871 v 30.129 h -8.696 v 29.144 l 17.493,18.598 v 30.187 h 4.543 v 11.782 h -10.012 v 0" /><path
         id="path62"
         style="fill:#ed1c24;fill-opacity:1;fill-rule:nonzero;stroke:none"
         d="M 291.621,302.172 V 278.18 h 59.942 v 23.992 h -59.942" /><path
         id="path64"
         style="fill:none;stroke:#ffffff;stroke-width:0.57560098;stroke-linecap:butt;stroke-linejoin:miter;stroke-miterlimit:4;stroke-dasharray:none;stroke-opacity:1"
         d="M 291.621,302.172 V 278.18 h 59.942 v 23.992 z" /><path
         id="path66"
         style="fill:#ed1c24;fill-opacity:1;fill-rule:nonzero;stroke:none"
         d="m 291.621,333.789 v -28.012 h 73.008 l -20.938,28.012 h -52.07" /><path
         id="path68"
         style="fill:none;stroke:#ffffff;stroke-width:0.57560098;stroke-linecap:butt;stroke-linejoin:miter;stroke-miterlimit:4;stroke-dasharray:none;stroke-opacity:1"
         d="m 291.621,333.789 v -28.012 h 73.008 l -20.938,28.012 z" /><path
         id="path70"
         style="fill:#ed1c24;fill-opacity:1;fill-rule:nonzero;stroke:none"
         d="M 218.586,333.789 H 166.539 L 145.59,305.777 h 72.996 v 28.012" /><path
         id="path72"
         style="fill:none;stroke:#ffffff;stroke-width:0.57560098;stroke-linecap:butt;stroke-linejoin:miter;stroke-miterlimit:4;stroke-dasharray:none;stroke-opacity:1"
         d="M 218.586,333.789 H 166.539 L 145.59,305.777 h 72.996 z" /><path
         id="path74"
         style="fill:#ed1c24;fill-opacity:1;fill-rule:nonzero;stroke:none"
         d="m 218.586,278.18 v 23.992 H 158.672 V 278.18 h 59.914" /><path
         id="path76"
         style="fill:none;stroke:#ffffff;stroke-width:0.57560098;stroke-linecap:butt;stroke-linejoin:miter;stroke-miterlimit:4;stroke-dasharray:none;stroke-opacity:1"
         d="m 218.586,278.18 v 23.992 H 158.672 V 278.18 Z" /><path
         id="path78"
         style="fill:#ffffff;fill-opacity:1;fill-rule:nonzero;stroke:none"
         d="m 217.984,206.738 h -10.757 v 15.481 c 1.699,5.215 9.066,5.215 10.757,0 v -15.481 0" /><path
         id="path80"
         style="fill:#ffffff;fill-opacity:1;fill-rule:nonzero;stroke:none"
         d="m 261.816,206.738 h -13.421 v 17.129 c 2.109,6.516 11.324,6.516 13.421,0 v -17.129 0" /><path
         id="path82"
         style="fill:#ffffff;fill-opacity:1;fill-rule:nonzero;stroke:none"
         d="m 239.68,206.738 h -13.442 v 17.129 c 2.114,6.516 11.328,6.516 13.442,0 v -17.129 0" /><path
         id="path84"
         style="fill:#ffffff;fill-opacity:1;fill-rule:nonzero;stroke:none"
         d="m 292.227,206.738 h 10.753 v 15.481 c -1.703,5.215 -9.054,5.215 -10.753,0 v -15.481 0" /><path
         id="path86"
         style="fill:#ffffff;fill-opacity:1;fill-rule:nonzero;stroke:none"
         d="m 270.547,206.738 h 13.437 v 17.129 c -2.109,6.516 -11.328,6.516 -13.437,0 v -17.129 0" /><path
         id="path88"
         style="fill:#ffffff;fill-opacity:1;fill-rule:nonzero;stroke:none"
         d="m 155.883,216.105 h -7.602 v 8.836 c 1.196,3.692 6.407,3.692 7.602,0 v -8.836 0" /><path
         id="path90"
         style="fill:none;stroke:#ffffff;stroke-width:0.57560098;stroke-linecap:butt;stroke-linejoin:miter;stroke-miterlimit:4;stroke-dasharray:none;stroke-opacity:1"
         d="m 155.883,216.105 h -7.602 v 8.836 c 1.196,3.692 6.407,3.692 7.602,0 v -8.836 z" /><path
         id="path92"
         style="fill:#ffffff;fill-opacity:1;fill-rule:nonzero;stroke:none"
         d="m 170.953,216.105 h -7.613 v 8.836 c 1.211,3.692 6.406,3.692 7.613,0 v -8.836 0" /><path
         id="path94"
         style="fill:none;stroke:#ffffff;stroke-width:0.57560098;stroke-linecap:butt;stroke-linejoin:miter;stroke-miterlimit:4;stroke-dasharray:none;stroke-opacity:1"
         d="m 170.953,216.105 h -7.613 v 8.836 c 1.211,3.692 6.406,3.692 7.613,0 v -8.836 z" /><path
         id="path96"
         style="fill:#ffffff;fill-opacity:1;fill-rule:nonzero;stroke:none"
         d="m 186.023,216.105 h -7.601 v 8.836 c 1.195,3.692 6.406,3.692 7.601,0 v -8.836 0" /><path
         id="path98"
         style="fill:none;stroke:#ffffff;stroke-width:0.57560098;stroke-linecap:butt;stroke-linejoin:miter;stroke-miterlimit:4;stroke-dasharray:none;stroke-opacity:1"
         d="m 186.023,216.105 h -7.601 v 8.836 c 1.195,3.692 6.406,3.692 7.601,0 v -8.836 z" /><path
         id="path100"
         style="fill:#ffffff;fill-opacity:1;fill-rule:nonzero;stroke:none"
         d="m 331.785,216.105 h -7.597 v 8.836 c 1.195,3.692 6.398,3.692 7.597,0 v -8.836 0" /><path
         id="path102"
         style="fill:none;stroke:#ffffff;stroke-width:0.57560098;stroke-linecap:butt;stroke-linejoin:miter;stroke-miterlimit:4;stroke-dasharray:none;stroke-opacity:1"
         d="m 331.785,216.105 h -7.597 v 8.836 c 1.195,3.692 6.398,3.692 7.597,0 v -8.836 z" /><path
         id="path104"
         style="fill:#ffffff;fill-opacity:1;fill-rule:nonzero;stroke:none"
         d="m 346.863,216.105 h -7.617 v 8.836 c 1.223,3.692 6.418,3.692 7.617,0 v -8.836 0" /><path
         id="path106"
         style="fill:none;stroke:#ffffff;stroke-width:0.57560098;stroke-linecap:butt;stroke-linejoin:miter;stroke-miterlimit:4;stroke-dasharray:none;stroke-opacity:1"
         d="m 346.863,216.105 h -7.617 v 8.836 c 1.223,3.692 6.418,3.692 7.617,0 v -8.836 z" /><path
         id="path108"
         style="fill:#ffffff;fill-opacity:1;fill-rule:nonzero;stroke:none"
         d="m 361.926,216.105 h -7.61 v 8.836 c 1.211,3.692 6.414,3.692 7.61,0 v -8.836 0" /><path
         id="path110"
         style="fill:none;stroke:#ffffff;stroke-width:0.57560098;stroke-linecap:butt;stroke-linejoin:miter;stroke-miterlimit:4;stroke-dasharray:none;stroke-opacity:1"
         d="m 361.926,216.105 h -7.61 v 8.836 c 1.211,3.692 6.414,3.692 7.61,0 v -8.836 z" /><path
         id="path112"
         style="fill:#ffffff;fill-opacity:1;fill-rule:nonzero;stroke:none"
         d="m 177.629,285.469 h -7.613 v 8.844 c 1.207,3.679 6.414,3.679 7.613,0 v -8.844 0" /><path
         id="path114"
         style="fill:none;stroke:#ffffff;stroke-width:0.57560098;stroke-linecap:butt;stroke-linejoin:miter;stroke-miterlimit:4;stroke-dasharray:none;stroke-opacity:1"
         d="m 177.629,285.469 h -7.613 v 8.844 c 1.207,3.679 6.414,3.679 7.613,0 v -8.844 z" /><path
         id="path116"
         style="fill:#ffffff;fill-opacity:1;fill-rule:nonzero;stroke:none"
         d="m 192.695,285.469 h -7.605 v 8.844 c 1.187,3.679 6.398,3.679 7.605,0 v -8.844 0" /><path
         id="path118"
         style="fill:none;stroke:#ffffff;stroke-width:0.57560098;stroke-linecap:butt;stroke-linejoin:miter;stroke-miterlimit:4;stroke-dasharray:none;stroke-opacity:1"
         d="m 192.695,285.469 h -7.605 v 8.844 c 1.187,3.679 6.398,3.679 7.605,0 v -8.844 z" /><path
         id="path120"
         style="fill:#ffffff;fill-opacity:1;fill-rule:nonzero;stroke:none"
         d="m 207.754,285.469 h -7.598 v 8.844 c 1.196,3.679 6.403,3.679 7.598,0 v -8.844 0" /><path
         id="path122"
         style="fill:none;stroke:#ffffff;stroke-width:0.57560098;stroke-linecap:butt;stroke-linejoin:miter;stroke-miterlimit:4;stroke-dasharray:none;stroke-opacity:1"
         d="m 207.754,285.469 h -7.598 v 8.844 c 1.196,3.679 6.403,3.679 7.598,0 v -8.844 z" /><path
         id="path124"
         style="fill:#ffffff;fill-opacity:1;fill-rule:nonzero;stroke:none"
         d="m 310.059,285.469 h -7.618 v 8.844 c 1.211,3.679 6.407,3.679 7.618,0 v -8.844 0" /><path
         id="path126"
         style="fill:none;stroke:#ffffff;stroke-width:0.57560098;stroke-linecap:butt;stroke-linejoin:miter;stroke-miterlimit:4;stroke-dasharray:none;stroke-opacity:1"
         d="m 310.059,285.469 h -7.618 v 8.844 c 1.211,3.679 6.407,3.679 7.618,0 v -8.844 z" /><path
         id="path128"
         style="fill:#ffffff;fill-opacity:1;fill-rule:nonzero;stroke:none"
         d="m 325.129,285.469 h -7.602 v 8.844 c 1.196,3.679 6.399,3.679 7.602,0 v -8.844 0" /><path
         id="path130"
         style="fill:none;stroke:#ffffff;stroke-width:0.57560098;stroke-linecap:butt;stroke-linejoin:miter;stroke-miterlimit:4;stroke-dasharray:none;stroke-opacity:1"
         d="m 325.129,285.469 h -7.602 v 8.844 c 1.196,3.679 6.399,3.679 7.602,0 v -8.844 z" /><path
         id="path132"
         style="fill:#ffffff;fill-opacity:1;fill-rule:nonzero;stroke:none"
         d="m 340.188,285.469 h -7.598 v 8.844 c 1.187,3.679 6.394,3.679 7.598,0 v -8.844 0" /><path
         id="path134"
         style="fill:none;stroke:#ffffff;stroke-width:0.57560098;stroke-linecap:butt;stroke-linejoin:miter;stroke-miterlimit:4;stroke-dasharray:none;stroke-opacity:1"
         d="m 340.188,285.469 h -7.598 v 8.844 c 1.187,3.679 6.394,3.679 7.598,0 v -8.844 z" /><path
         id="path136"
         style="fill:#ffffff;fill-opacity:1;fill-rule:nonzero;stroke:none"
         d="m 243.844,326.02 h -7.614 v 8.843 c 1.208,3.684 6.426,3.684 7.614,0 v -8.843 0" /><path
         id="path138"
         style="fill:none;stroke:#ffffff;stroke-width:0.57560098;stroke-linecap:butt;stroke-linejoin:miter;stroke-miterlimit:4;stroke-dasharray:none;stroke-opacity:1"
         d="m 243.844,326.02 h -7.614 v 8.843 c 1.208,3.684 6.426,3.684 7.614,0 v -8.843 z" /><path
         id="path140"
         style="fill:#ffffff;fill-opacity:1;fill-rule:nonzero;stroke:none"
         d="m 258.906,326.02 h -7.617 v 8.843 c 1.223,3.684 6.426,3.684 7.617,0 v -8.843 0" /><path
         id="path142"
         style="fill:none;stroke:#ffffff;stroke-width:0.57560098;stroke-linecap:butt;stroke-linejoin:miter;stroke-miterlimit:4;stroke-dasharray:none;stroke-opacity:1"
         d="m 258.906,326.02 h -7.617 v 8.843 c 1.223,3.684 6.426,3.684 7.617,0 v -8.843 z" /><path
         id="path144"
         style="fill:#ffffff;fill-opacity:1;fill-rule:nonzero;stroke:none"
         d="m 273.984,326.02 h -7.617 v 8.843 c 1.211,3.684 6.406,3.684 7.617,0 v -8.843 0" /><path
         id="path146"
         style="fill:none;stroke:#ffffff;stroke-width:0.57560098;stroke-linecap:butt;stroke-linejoin:miter;stroke-miterlimit:4;stroke-dasharray:none;stroke-opacity:1"
         d="m 273.984,326.02 h -7.617 v 8.843 c 1.211,3.684 6.406,3.684 7.617,0 v -8.843 z" /><path
         id="path148"
         style="fill:#ed1c24;fill-opacity:1;fill-rule:nonzero;stroke:none"
         d="m 207.773,240.605 c 1.442,-0.671 3.543,-1.359 6.196,-1.359 v 0 c 5.523,0.012 8.094,1.906 8.203,1.984 v 0 0 l 0.379,0.293 26.847,57.7 -41.921,-58.481 c 0.089,-0.047 0.195,-0.097 0.296,-0.137 v 0" /><path
         id="path150"
         style="fill:none;stroke:#ffffff;stroke-width:0.57560098;stroke-linecap:butt;stroke-linejoin:miter;stroke-miterlimit:4;stroke-dasharray:none;stroke-opacity:1"
         d="m 207.773,240.605 c 1.442,-0.671 3.543,-1.359 6.196,-1.359 v 0 c 5.523,0.012 8.094,1.906 8.203,1.984 v 0 0 l 0.379,0.293 26.847,57.7 -41.921,-58.481 c 0.089,-0.047 0.195,-0.097 0.296,-0.137 z" /><path
         id="path152"
         style="fill:#ed1c24;fill-opacity:1;fill-rule:nonzero;stroke:none"
         d="m 226.352,240.422 c 1.484,-0.5 3.746,-1.008 6.746,-1.008 v 0 c 4.668,-0.008 8.289,2.024 9.015,2.481 v 0 c 0.106,0.07 0.129,0.078 0.129,0.078 v 0 l 0.004,0.011 10.371,58.891 -26.566,-60.348 c 0.097,-0.039 0.195,-0.066 0.301,-0.105 v 0" /><path
         id="path154"
         style="fill:none;stroke:#ffffff;stroke-width:0.57560098;stroke-linecap:butt;stroke-linejoin:miter;stroke-miterlimit:4;stroke-dasharray:none;stroke-opacity:1"
         d="m 226.352,240.422 c 1.484,-0.5 3.746,-1.008 6.746,-1.008 v 0 c 4.668,-0.008 8.289,2.024 9.015,2.481 v 0 c 0.106,0.07 0.129,0.078 0.129,0.078 v 0 l 0.004,0.011 10.371,58.891 -26.566,-60.348 c 0.097,-0.039 0.195,-0.066 0.301,-0.105 z" /><path
         id="path156"
         style="fill:#ed1c24;fill-opacity:1;fill-rule:nonzero;stroke:none"
         d="m 246.195,240.773 c 1.477,-0.585 4.215,-1.261 8.903,-1.261 v 0 c 5.273,0 8.047,0.84 9.382,1.465 v 0 l -9.382,61.136 -9.368,-61.144 c 0.145,-0.059 0.293,-0.129 0.465,-0.196 v 0" /><path
         id="path158"
         style="fill:none;stroke:#ffffff;stroke-width:0.57560098;stroke-linecap:butt;stroke-linejoin:miter;stroke-miterlimit:4;stroke-dasharray:none;stroke-opacity:1"
         d="m 246.195,240.773 c 1.477,-0.585 4.215,-1.261 8.903,-1.261 v 0 c 5.273,0 8.047,0.84 9.382,1.465 v 0 l -9.382,61.136 -9.368,-61.144 c 0.145,-0.059 0.293,-0.129 0.465,-0.196 z" /><path
         id="path160"
         style="fill:#ed1c24;fill-opacity:1;fill-rule:nonzero;stroke:none"
         d="m 188.402,241.145 c 1.125,-0.61 2.805,-1.223 5.09,-1.223 v 0 c 3.547,-0.02 7.656,1.25 9.418,1.894 v 0 c 0.586,0.207 0.899,0.332 0.899,0.332 v 0 l 0.336,0.149 40.66,54.805 -56.492,-55.903 c 0.027,-0.015 0.054,-0.039 0.089,-0.054 v 0" /><path
         id="path162"
         style="fill:none;stroke:#ffffff;stroke-width:0.57560098;stroke-linecap:butt;stroke-linejoin:miter;stroke-miterlimit:4;stroke-dasharray:none;stroke-opacity:1"
         d="m 188.402,241.145 c 1.125,-0.61 2.805,-1.223 5.09,-1.223 v 0 c 3.547,-0.02 7.656,1.25 9.418,1.894 v 0 c 0.586,0.207 0.899,0.332 0.899,0.332 v 0 l 0.336,0.149 40.66,54.805 -56.492,-55.903 c 0.027,-0.015 0.054,-0.039 0.089,-0.054 z" /><path
         id="path164"
         style="fill:#ed1c24;fill-opacity:1;fill-rule:nonzero;stroke:none"
         d="m 302.422,240.605 c 0.105,0.04 0.207,0.09 0.305,0.137 l -41.985,58.567 26.903,-57.786 0.382,-0.293 v 0 0 c 0.11,-0.078 2.676,-1.972 8.203,-1.984 v 0 c 2.649,0 4.754,0.688 6.192,1.359 v 0" /><path
         id="path166"
         style="fill:none;stroke:#ffffff;stroke-width:0.57560098;stroke-linecap:butt;stroke-linejoin:miter;stroke-miterlimit:4;stroke-dasharray:none;stroke-opacity:1"
         d="m 302.422,240.605 c 0.105,0.04 0.207,0.09 0.305,0.137 l -41.985,58.567 26.903,-57.786 0.382,-0.293 v 0 0 c 0.11,-0.078 2.676,-1.972 8.203,-1.984 v 0 c 2.649,0 4.754,0.688 6.192,1.359 z" /><path
         id="path168"
         style="fill:#ed1c24;fill-opacity:1;fill-rule:nonzero;stroke:none"
         d="m 283.848,240.422 c 0.105,0.039 0.207,0.066 0.3,0.105 l -26.636,60.356 10.437,-58.899 0.012,-0.011 v 0 c 0,0 0.019,-0.008 0.125,-0.078 v 0 c 0.723,-0.457 4.348,-2.489 9.016,-2.481 v 0 c 2.996,0 5.261,0.508 6.746,1.008 v 0" /><path
         id="path170"
         style="fill:none;stroke:#ffffff;stroke-width:0.57560098;stroke-linecap:butt;stroke-linejoin:miter;stroke-miterlimit:4;stroke-dasharray:none;stroke-opacity:1"
         d="m 283.848,240.422 c 0.105,0.039 0.207,0.066 0.3,0.105 l -26.636,60.356 10.437,-58.899 0.012,-0.011 v 0 c 0,0 0.019,-0.008 0.125,-0.078 v 0 c 0.723,-0.457 4.348,-2.489 9.016,-2.481 v 0 c 2.996,0 5.261,0.508 6.746,1.008 z" /><path
         id="path172"
         style="fill:#ed1c24;fill-opacity:1;fill-rule:nonzero;stroke:none"
         d="m 321.797,241.145 c 0.027,0.015 0.058,0.039 0.098,0.054 l -56.582,55.949 40.742,-54.851 0.332,-0.149 v 0 c 0,0 0.312,-0.125 0.898,-0.332 v 0 c 1.77,-0.644 5.867,-1.914 9.414,-1.894 v 0 c 2.293,0 3.977,0.613 5.098,1.223 v 0" /><path
         id="path174"
         style="fill:none;stroke:#ffffff;stroke-width:0.57560098;stroke-linecap:butt;stroke-linejoin:miter;stroke-miterlimit:4;stroke-dasharray:none;stroke-opacity:1"
         d="m 321.797,241.145 c 0.027,0.015 0.058,0.039 0.098,0.054 l -56.582,55.949 40.742,-54.851 0.332,-0.149 v 0 c 0,0 0.312,-0.125 0.898,-0.332 v 0 c 1.77,-0.644 5.867,-1.914 9.414,-1.894 v 0 c 2.293,0 3.977,0.613 5.098,1.223 z" /><path
         id="path176"
         style="fill:#ffffff;fill-opacity:1;fill-rule:nonzero;stroke:none"
         d="m 261.797,314.809 -6.699,-6.692 -6.696,6.692 6.696,6.691 6.699,-6.691 v 0" /><path
         id="path178"
         style="fill:#ed1c24;fill-opacity:1;fill-rule:nonzero;stroke:none"
         d="m 215.676,345.781 h 78.863 v 15.996 h -9.473 v -8.968 h -13.601 v 9.671 h -8.684 v -9.671 h -15.359 v 9.671 h -8.676 v -9.671 h -13.609 v 8.968 h -9.461 v -15.996 0" /><path
         id="path180"
         style="fill:#231f20;fill-opacity:1;fill-rule:nonzero;stroke:none"
         d="M 31.8164,0.734375 V 21.7188 H 7.62109 V 0.734375 H 0 V 48.6055 H 7.62109 V 28.4102 H 31.8164 v 20.1953 h 7.6367 V 0.734375 h -7.6367 v 0" /><path
         id="path182"
         style="fill:#231f20;fill-opacity:1;fill-rule:nonzero;stroke:none"
         d="M 57.3242,0.734375 V 48.6055 h 25.5664 l -2.3242,-6.543 H 64.9609 V 28.4766 h 15.5352 v -6.543 H 64.9609 V 7.27734 H 82.9727 V 0.734375 H 57.3242 v 0" /><path
         id="path184"
         style="fill:#231f20;fill-opacity:1;fill-rule:nonzero;stroke:none"
         d="M 98.8867,0.734375 V 48.6055 h 7.5543 V 7.27734 h 17.52 V 0.734375 H 98.8867 v 0" /><path
         id="path186"
         style="fill:#231f20;fill-opacity:1;fill-rule:nonzero;stroke:none"
         d="m 148.883,0 c -6.602,0 -11.129,2.1875 -14.164,4.13281 l 3.195,5.75 c 2.395,-1.66797 6.168,-3.57422 10.676,-3.57422 3.914,0 8.5,1.76563 8.5,6.12501 0,7.3437 -11.555,8.7773 -17.367,15.2539 -1.969,2.1758 -3.258,4.8711 -3.258,8.5547 0,6.9922 5.371,12.8125 15.035,12.8125 5.086,0 8.859,-1.3203 11.328,-2.6289 l -0.074,-7.1094 c -3.274,1.9453 -6.965,3.332 -10.895,3.332 -4.14,0 -7.562,-1.7382 -7.562,-5.5078 0,-9.4531 20.922,-9.1797 20.922,-23.8398 C 165.219,5.23438 158.109,0 148.883,0 v 0" /><path
         id="path188"
         style="fill:#231f20;fill-opacity:1;fill-rule:nonzero;stroke:none"
         d="M 180.422,0.734375 V 48.6055 h 7.621 V 0.734375 h -7.621 v 0" /><path
         id="path190"
         style="fill:#231f20;fill-opacity:1;fill-rule:nonzero;stroke:none"
         d="M 240.801,0.734375 218.262,30.1484 c -2.321,3.0469 -3.614,4.9493 -4.785,6.9141 h -0.141 c 0.141,-1.6133 0.141,-3.9375 0.141,-6.2617 V 0.734375 H 205.93 V 48.6055 h 7.699 L 235.27,20.2734 c 2.625,-3.4257 3.925,-5.2343 5.019,-7.207 h 0.141 c -0.075,1.9727 -0.141,4.3672 -0.141,6.7109 v 28.8282 h 7.633 V 0.734375 h -7.121 v 0" /><path
         id="path192"
         style="fill:#231f20;fill-opacity:1;fill-rule:nonzero;stroke:none"
         d="m 285.852,0 c -14.602,0 -23.957,10.2539 -23.957,24.043 0,14.4726 10.363,25.0117 25.988,25.0117 6.101,0 10.75,-1.3906 13.887,-2.707 l -0.082,-7.3321 c -3.497,1.8047 -8.067,3.5625 -13.29,3.5625 -12.429,0 -18.3,-7.8593 -18.3,-17.8008 0,-10.7421 6.738,-18.30074 17.707,-18.30074 3.574,0 6.328,0.63282 8.074,1.59766 V 24.5625 h 7.617 V 4.23047 C 299.648,2.1875 293.34,0 285.852,0 v 0" /><path
         id="path194"
         style="fill:#231f20;fill-opacity:1;fill-rule:nonzero;stroke:none"
         d="M 334.758,0.734375 H 320.652 V 48.6055 h 14.536 c 9.16,0 13.367,-6.0938 13.367,-11.7813 0,-4.4297 -2.11,-8.3476 -6.094,-10.1719 v -0.0507 c 5.012,-1.1055 9.141,-5.6719 9.141,-11.6289 0,-6.69145 -4.571,-14.238325 -16.844,-14.238325 z M 328.293,41.9922 v -13.582 h 5.437 c 3.575,0 7.051,2.6054 7.051,6.9609 0,4.0156 -2.39,6.6211 -7.636,6.6211 h -4.852 z m 6.465,-20.125 h -6.465 V 7.27734 h 6.102 c 6.191,0 9.304,3.04686 9.304,7.62496 0,4.0508 -3.347,6.9649 -8.941,6.9649 v 0" /><path
         id="path196"
         style="fill:#231f20;fill-opacity:1;fill-rule:nonzero;stroke:none"
         d="m 369.719,42.0625 c 4.273,4.3633 10.301,6.9922 17.351,6.9922 7.547,0 13.887,-2.7734 18.164,-7.4922 3.938,-4.3555 6.016,-10.2422 6.016,-17 0,-7.1992 -2.461,-13.5078 -6.887,-17.87109 C 399.988,2.39453 394.121,0 387.07,0 c -6.757,0 -12.422,2.11719 -16.64,5.89063 -4.793,4.43357 -7.539,10.88667 -7.539,18.38667 0,7.1094 2.461,13.3516 6.828,17.7852 z m 17.351,0.3711 c -9.66,0 -16.125,-6.8281 -16.125,-18.0391 0,-11.0937 6.465,-17.91794 16.125,-17.91794 9.59,0 16.067,6.82424 16.067,17.91794 0,10.7696 -6.047,18.0391 -16.067,18.0391 v 0" /><path
         id="path198"
         style="fill:#231f20;fill-opacity:1;fill-rule:nonzero;stroke:none"
         d="M 450.352,0.734375 C 442.871,13.0664 439.172,19.6094 437.285,20.1289 h -4.433 V 0.734375 h -7.625 V 48.6055 h 11.914 c 11.98,0 16.57,-6.0274 16.57,-13.3711 0,-6.543 -4.297,-10.7422 -9.016,-12.6446 v -0.0703 c 1.953,-1.0039 7.043,-9.5234 14.535,-21.785125 h -8.878 z M 437.207,41.9922 h -4.355 V 26.0859 h 4.511 c 4.934,0 8.567,3.7774 8.567,8.3477 0,4.1328 -2.539,7.5586 -8.723,7.5586 v 0" /><path
         id="path200"
         style="fill:#231f20;fill-opacity:1;fill-rule:nonzero;stroke:none"
         d="m 492.59,0 c -14.621,0 -23.985,10.2539 -23.985,24.043 0,14.4726 10.387,25.0117 26.004,25.0117 6.106,0 10.762,-1.3906 13.875,-2.707 l -0.054,-7.3321 c -3.496,1.8047 -8.071,3.5625 -13.301,3.5625 -12.434,0 -18.32,-7.8593 -18.32,-17.8008 0,-10.7421 6.754,-18.30074 17.734,-18.30074 3.555,0 6.324,0.63282 8.055,1.59766 V 24.5625 h 7.636 V 4.23047 C 506.387,2.1875 500.059,0 492.59,0 v 0" /><path
         id="path202"
         style="fill:none;stroke:#231f20;stroke-width:1.31696999;stroke-linecap:butt;stroke-linejoin:miter;stroke-miterlimit:4;stroke-dasharray:none;stroke-opacity:1"
         d="M 396.777,421.133 H 255.113 v 0 h -0.074 v 0 H 113.453 c -0.094,-257.227 0,-257.227 0,-269.461 0,-11.524 4.75,-23.723 23.031,-28.457 18.274,-4.738 86.692,-20.793 98.852,-23.6916 16.344,-3.8867 19.727,-16.9336 19.727,-16.9336 0,0 3.5,13.0469 19.742,16.9336 12.148,2.9176 80.578,18.9536 98.855,23.6916 18.274,4.734 23.117,16.933 23.117,28.457 0,12.234 0.086,12.234 0,269.461 z" /></g></g></svg>
