<?xml version="1.0" encoding="UTF-8"?>
<!-- Created with Inkscape (http://www.inkscape.org/) -->
<svg width="33.867mm" height="33.867mm" version="1.1" viewBox="0 0 33.867 33.867" xmlns="http://www.w3.org/2000/svg" xmlns:cc="http://creativecommons.org/ns#" xmlns:dc="http://purl.org/dc/elements/1.1/" xmlns:rdf="http://www.w3.org/1999/02/22-rdf-syntax-ns#">
 <metadata>
  <rdf:RDF>
   <cc:Work rdf:about="">
    <dc:format>image/svg+xml</dc:format>
    <dc:type rdf:resource="http://purl.org/dc/dcmitype/StillImage"/>
    <dc:title/>
   </cc:Work>
  </rdf:RDF>
 </metadata>
 <g transform="translate(-17.757 -90.872)">
  <text x="57.167664" y="117.74992" fill="#17a2b8" font-family="'Monotype Corsiva'" font-size="25.4px" letter-spacing="0px" stroke-width=".26458" word-spacing="0px" style="line-height:1.25" xml:space="preserve"><tspan x="57.167664" y="117.74992" fill="#17a2b8" font-family="sans-serif" font-style="italic" stroke-width=".26458">Telehelp</tspan></text>
 </g>
 <g transform="translate(-17.757 -90.872)">
  <path transform="matrix(.26458 0 0 .26458 17.756 90.868)" d="m8.3301 0.013672c-4.6133 0-8.3281 3.7148-8.3281 8.3281v111.35c0 4.6133 3.7148 8.3281 8.3281 8.3281h111.35c4.6133 0 8.3281-3.7148 8.3281-8.3281v-111.35c0-4.6133-3.7148-8.3281-8.3281-8.3281zm45.182 10.213 3.9004 0.097657 5.1719 0.67578 5.9355 1.2559 7.6309 2.2207 3.0527 1.1582 4.4941 2.0293 3.9004 2.3184 2.2891 1.834 1.0176 7.5332 0.16992 4.0566-0.33984 2.6074-0.42383 1.7383-1.1016 1.2559-1.6973 0.67578-3.1367 0.48438-4.2402 0.28906-4.748-0.38672-4.6621-1.6426-1.2734-1.1582-0.33789-0.86914v-2.7051l1.1016-4.7324 0.33984-2.125-0.67969-1.834-1.2715-1.0625-1.6953-0.9668-2.459-0.77148-2.8828-0.48242-2.0117-0.05078v42.506c0.36196-1.7481 3.1068-5.3899 19.828-5.2285 27.624 0.26747 28.561 19.49 28.561 19.49l-0.47266 36.314h-11.801l0.23633-35.68s-4.7212-10.805-19.355-10.805c-14.635 0-16.287 11.863-16.287 11.863l-0.23633 35.043-12.039 0.34765 1.4824-93.918-2.7422 0.21289-3.0527 0.48242-2.375 0.86914-1.0176 0.67578-1.0176 1.0625-0.33789 0.67773-0.25586 0.67578-0.08398 1.0625 0.33984 2.125 0.76172 3.5723 0.16992 2.125-0.08398 1.5449-1.1602 1.0938-2.4883 1.2988-1.7988 0.47852-4.3457 0.44336-3.0293 0.0332-2.4883-0.20508-1.8574-0.30664-1.4395-0.375-1.3184-0.51172-0.75-0.58203-0.7793-1.3652-0.33008-2.459 0.03125-3.1758 0.53906-5.293 0.69531-4.5273 3.1367-2.4141 5.5957-2.7051 6.6992-2.5098 8.0547-1.9316 5.3418-0.9668z" fill="#17a2b8"/>
 </g>
</svg>
