<svg xmlns="http://www.w3.org/2000/svg" viewBox="0 0 1977.19 512.26">
  <title>telehelp-logo-heart</title>
  <g>
    <path d="M297.37,404.57a218.45,218.45,0,0,1-45.58,3.84q-22.33-.53-39.88-7.89a53.3,53.3,0,0,1-26.69-23.78,69,69,0,0,1-8.72-31.26q-.42-15.89-.41-36V118h56.52V306.13q0,13.08.32,23.57t4.25,16.72q7.48,11.83,23.89,12.87a184.82,184.82,0,0,0,36.34-1.66Z" fill="#102c2e"/>
    <path d="M453.18,418.8q-34.06,0-59.81-14.75a104.14,104.14,0,0,1-40.19-40.91Q338.75,337,338.75,302.91q0-36.75,14.12-63.86T392.12,197q25.13-15,58.15-15,34.89,0,59.3,16.31t36.23,46q11.85,29.7,8.93,70H505.1V296.06q-.21-36.56-12.88-53.37t-39.87-16.78q-30.74,0-45.69,19t-15,55.51q0,34.07,15,52.75t43.61,18.74q18.48,0,31.88-8.2t20.67-23.8l49.42,14.95Q539.37,385.19,512.47,402A109.61,109.61,0,0,1,453.18,418.8ZM375.92,314.34v-37.8H530.23v37.8Z" fill="#102c2e"/>
    <path d="M605.4,412.57V107.28h50.05V412.57Z" fill="#102c2e"/>
    <path d="M819.72,418.8q-34.05,0-59.81-14.75a104.12,104.12,0,0,1-40.18-40.91Q705.29,337,705.29,302.91q0-36.75,14.12-63.86T758.67,197q25.13-15,58.15-15,34.89,0,59.29,16.31t36.24,46q11.83,29.7,8.93,70H871.61V296.06q-.21-36.56-12.87-53.37t-39.85-16.78q-30.74,0-45.69,19t-15,55.55q0,34.07,15,52.75t43.62,18.7q18.48,0,31.88-8.2t20.66-23.8l49.43,14.95Q905.91,385.19,879,402A109.64,109.64,0,0,1,819.72,418.8ZM742.47,314.34v-37.8h154.3v37.8Z" fill="#102c2e"/>
    <path d="M967.38,412.57V113.51H1012v157.4h6V412.57Zm155.55,0v-108a211.67,211.67,0,0,0-1.45-23.47,84.28,84.28,0,0,0-6.75-24.82A48.1,48.1,0,0,0,1099,236.65q-10.5-7.68-28.35-7.68a59.25,59.25,0,0,0-18.9,3.12,43.14,43.14,0,0,0-16.93,10.69q-7.57,7.59-12.15,20.77t-4.56,33.75l-29.7-12.67q0-28.67,11.11-51.92a88.29,88.29,0,0,1,32.71-37.07q21.6-13.81,53.16-13.81,24.93,0,41.12,8.3t25.76,21.19a92.43,92.43,0,0,1,14.12,27.41,140.63,140.63,0,0,1,5.92,27.52q1.35,13,1.35,21.08V412.57Z" fill="#102c2e"/>
    <path d="M1329.61,418.8q-34.06,0-59.81-14.75a104.14,104.14,0,0,1-40.19-40.91q-14.43-26.16-14.43-60.23,0-36.75,14.12-63.86T1268.55,197q25.13-15,58.15-15,34.89,0,59.3,16.31t36.23,46q11.85,29.7,8.94,70h-49.64V296.06q-.21-36.56-12.88-53.37t-39.91-16.78q-30.73,0-45.69,19t-15,55.55q0,34.07,15,52.75t43.61,18.7q18.48,0,31.88-8.2t20.67-23.8l49.4,14.92q-12.87,30.33-39.77,47.15A109.61,109.61,0,0,1,1329.61,418.8Zm-77.3-104.46v-37.8h154.3v37.8Z" fill="#102c2e"/>
    <path d="M1481.79,412.57V107.28h50.06V412.57Z" fill="#102c2e"/>
    <path d="M1593.73,512.26v-324H1638V345.7h6.23V512.26Zm108.2-93.46q-32.82,0-55-15.58t-33.44-42.47q-11.22-26.89-11.22-60.33,0-33.84,11.22-60.64t32.92-42.26Q1668.1,182,1700.09,182q31.77,0,55.14,15.48t36.24,42.16q12.87,26.69,12.88,60.74,0,33.65-12.67,60.44T1756,403.22q-23.09,15.58-54,15.58Zm-7.68-44.89q19.51,0,32.19-9.76t18.79-26.48a107.79,107.79,0,0,0,6.13-37.28,105.44,105.44,0,0,0-6.23-37.07q-6.24-16.71-19.32-26.58t-33.2-9.83q-19.11,0-31.15,9.24t-17.78,25.76q-5.72,16.5-5.72,38.52,0,21.81,5.72,38.42t18.06,25.86Q1674.1,373.91,1694.25,373.91Z" fill="#102c2e"/>
  </g>
  <g>
    <path d="M298.3,158.34l60-7.5c16-1.86,28.23-17.77,26-33.88l-1.49-9.74c-.05-.34-1.36-10.39-1.61-10.58A10,10,0,0,0,370,88.55l-100,12.5a9.6,9.6,0,0,0-8.63,10.46c0,.23.05.45.09.67l2.77,20.07C266.22,148.14,281.5,160.75,298.3,158.34Z" fill="#028890"/>
    <path d="M37.74,190.65l60-7.51c16-1.86,28.11-17.61,25.76-33.56l-1.53-10-1.25-10.05a9.91,9.91,0,0,0-11-8.7l-.29,0L9.22,133.39A9.82,9.82,0,0,0,.55,144.24l.06.44,1.49,9.73,1.53,10A30.55,30.55,0,0,0,37.74,190.65Z" fill="#028890"/>
    <path d="M2.05,154.41.61,144.68C-5.71,70.84,42.74,27.39,93.87,21.14L258.1.91C317.7-6.69,373,35.72,381.21,95.38a7.79,7.79,0,0,0,.4,2.53l1.29,9.33-119.79,15-.94-5.78-.59-4.24c-1.73-9.42-2.1-16.27-10-22.33a23.7,23.7,0,0,0-17.08-4.77L187.21,91,139.6,96.71c-12.18,1.52-21.33,13.45-19.65,25.61l.85,7.23,1.25,10Z" fill="#51a3a3"/>
    <path d="M122,139.56,2.05,154.41.61,144.68C-5.71,70.84,42.74,27.39,93.87,21.14l82.16-10,.16.12,11,79.72-47.61,5.68c-12.18,1.52-21.33,13.45-19.65,25.61l.85,7.23Z" fill="#028890" opacity="0.6" style="isolation: isolate"/>
  </g>
</svg>
