<svg id="Lager_1" data-name="Lager 1" xmlns="http://www.w3.org/2000/svg" viewBox="0 0 600 600"><defs><style>.cls-1{fill:#102c2e;}.cls-2,.cls-4{fill:#028890;}.cls-3{fill:#51a3a3;}.cls-4{opacity:0.6;}</style></defs><title>Rityta 1</title><path class="cls-1" d="M259.77,495.66V196.6H310V350.28h7.06V495.66Zm153.27,0V389.74q0-7.68-.83-19.62a88.42,88.42,0,0,0-5.2-24A45.75,45.75,0,0,0,392.79,326q-9.87-8.1-27.93-8.1a59.05,59.05,0,0,0-15.58,2.29A38.52,38.52,0,0,0,333.7,329q-7.26,6.54-11.94,19.21t-4.67,33.64l-32.4-15.37a116.91,116.91,0,0,1,10.8-49.84A89.35,89.35,0,0,1,328,279.05q21.7-14.32,54.73-14.33,26.37,0,43,8.93t25.85,22.64a94.2,94.2,0,0,1,13.19,28.55A145.2,145.2,0,0,1,469.53,352q.83,12.26.83,17.85V495.66Z"/><path class="cls-2" d="M382.69,235.43l60-7.5c16-1.86,28.23-17.77,26-33.88l-1.49-9.74c-.05-.34-1.36-10.39-1.61-10.58a10,10,0,0,0-11.2-8.09l-100,12.5a9.59,9.59,0,0,0-8.54,11.13l2.77,20.07C350.61,225.23,365.89,237.84,382.69,235.43Z"/><path class="cls-2" d="M122.13,267.74l60-7.51c16-1.86,28.11-17.61,25.76-33.56l-1.53-10-1.25-10.05a9.91,9.91,0,0,0-11.28-8.66L93.61,210.48A9.82,9.82,0,0,0,85,221.77l1.49,9.73,1.53,10A30.56,30.56,0,0,0,122.13,267.74Z"/><path class="cls-3" d="M86.44,231.5,85,221.77c-6.32-73.84,42.13-117.29,93.26-123.54L342.49,78c59.6-7.6,114.87,34.81,123.11,94.47A7.8,7.8,0,0,0,466,175l1.29,9.33-119.79,15-.94-5.78-.59-4.24c-1.73-9.42-2.1-16.27-10-22.33a23.72,23.72,0,0,0-17.08-4.77l-47.29,5.91-47.61,5.68c-12.18,1.52-21.33,13.45-19.65,25.61l.85,7.23,1.25,10.05Z"/><path class="cls-4" d="M206.39,216.65,86.44,231.5,85,221.77c-6.32-73.84,42.13-117.29,93.26-123.54l82.16-10,.16.12,11,79.72-47.61,5.68c-12.18,1.52-21.33,13.45-19.65,25.61l.85,7.23Z"/></svg>
